<svg width="49" height="42" viewBox="0 0 49 42" fill="none" xmlns="http://www.w3.org/2000/svg">
<path d="M24.6136 41.6136L4.90057 21.9006C3.32813 20.3281 2.27983 18.5 1.75568 16.4162C1.24432 14.3324 1.25071 12.2614 1.77486 10.2031C2.29901 8.1321 3.34091 6.32954 4.90057 4.79545C6.49858 3.22301 8.32031 2.18111 10.3658 1.66974C12.424 1.1456 14.4759 1.1456 16.5213 1.66974C18.5795 2.19389 20.4077 3.23579 22.0057 4.79545L24.6136 7.3267L27.2216 4.79545C28.8324 3.23579 30.6605 2.19389 32.706 1.66974C34.7514 1.1456 36.7969 1.1456 38.8423 1.66974C40.9006 2.18111 42.7287 3.22301 44.3267 4.79545C45.8864 6.32954 46.9283 8.1321 47.4524 10.2031C47.9766 12.2614 47.9766 14.3324 47.4524 16.4162C46.9411 18.5 45.8991 20.3281 44.3267 21.9006L24.6136 41.6136Z" fill="#FF069C"/>
</svg>
