<svg width="81" height="582" viewBox="0 0 81 582" fill="none" xmlns="http://www.w3.org/2000/svg">
<path d="M33.6959 38.4651L37.1224 35.548C41.8873 31.4915 42.4069 24.4006 38.396 19.6892L29.6448 9.40973C25.5882 4.64478 18.5509 4.07964 13.7859 8.13617L10.3595 11.0532C5.64804 15.0642 5.02936 22.1471 9.08589 26.9121L17.8371 37.1915C21.848 41.9029 28.9845 42.476 33.6959 38.4651ZM26.4033 29.8989C25.5828 28.9352 25.7478 27.5019 26.658 26.7271C27.6217 25.9067 29.0093 26.0181 29.8298 26.9818L31.2883 28.6951C32.1087 29.6588 31.9973 31.0464 31.0336 31.8668C30.1234 32.6417 28.6822 32.5758 27.8618 31.6121L26.4033 29.8989Z" fill="#151515"/>
<path fill-rule="evenodd" clip-rule="evenodd" d="M42.022 579.804L50.4336 548.411L51.3995 548.67L42.7291 581.029L10.3706 572.358L10.6294 571.392L42.022 579.804Z" fill="#151515"/>
<path fill-rule="evenodd" clip-rule="evenodd" d="M80 175C80 174.326 79.9981 173.655 79.9943 172.988L80.9943 172.982C80.9981 173.652 81 174.324 81 175C81 175.673 80.9962 176.346 80.9887 177.019L79.9887 177.008C79.9962 176.339 80 175.669 80 175ZM79.9491 169.015C79.9264 167.69 79.8963 166.377 79.8588 165.075L80.8584 165.046C80.896 166.352 80.9262 167.669 80.949 168.998L79.9491 169.015ZM79.7227 185.031C79.7958 183.695 79.8548 182.359 79.8992 181.021L80.8987 181.055C80.854 182.399 80.7947 183.743 80.7212 185.085L79.7227 185.031ZM79.7203 161.089C79.6664 159.769 79.6051 158.462 79.5364 157.167L80.535 157.114C80.6039 158.413 80.6654 159.725 80.7195 161.049L79.7203 161.089ZM79.1179 193.038C79.2458 191.705 79.3604 190.371 79.4614 189.037L80.4585 189.112C80.3571 190.453 80.2419 191.794 80.1133 193.133L79.1179 193.038ZM79.2995 153.175C79.2129 151.858 79.1188 150.553 79.0173 149.263L80.0142 149.184C80.116 150.479 80.2105 151.788 80.2974 153.109L79.2995 153.175ZM78.1957 201.015C78.3747 199.687 78.5414 198.358 78.6953 197.029L79.6886 197.144C79.5341 198.48 79.3666 199.814 79.1867 201.148L78.1957 201.015ZM78.6772 145.275C78.5561 143.959 78.4274 142.658 78.2914 141.371L79.2858 141.266C79.4223 142.557 79.5515 143.863 79.673 145.183L78.6772 145.275ZM77.8432 137.396C77.6857 136.082 77.5205 134.783 77.3481 133.499L78.3392 133.366C78.5122 134.654 78.678 135.958 78.8361 137.277L77.8432 137.396ZM76.9782 208.953C77.2047 207.632 77.4196 206.31 77.6226 204.988L78.611 205.14C78.4071 206.468 78.1913 207.795 77.9639 209.122L76.9782 208.953ZM76.787 129.544C76.5906 128.23 76.3866 126.933 76.1753 125.652L77.162 125.489C77.3741 126.775 77.5789 128.077 77.776 129.397L76.787 129.544ZM75.4882 216.846C75.7582 215.533 76.0175 214.22 76.2657 212.906L77.2483 213.092C76.9991 214.411 76.7387 215.73 76.4677 217.047L75.4882 216.846ZM75.4978 121.732C75.2599 120.418 75.0145 119.122 74.7621 117.844L75.7431 117.65C75.9966 118.933 76.243 120.235 76.4818 121.554L75.4978 121.732ZM73.7481 224.689C74.0577 223.386 74.3576 222.082 74.6473 220.777L75.6235 220.994C75.3327 222.304 75.0317 223.613 74.721 224.92L73.7481 224.689ZM73.9649 113.974C73.6828 112.66 73.3934 111.366 73.0971 110.092L74.0712 109.865C74.3687 111.145 74.6594 112.445 74.9426 113.764L73.9649 113.974ZM71.7798 232.481C72.1257 231.187 72.4626 229.891 72.7903 228.595L73.7598 228.84C73.431 230.141 73.0929 231.441 72.7459 232.739L71.7798 232.481ZM72.1728 106.266C71.8455 104.961 71.5112 103.678 71.1705 102.417L72.1359 102.157C72.4781 103.423 72.8139 104.712 73.1427 106.023L72.1728 106.266ZM69.605 240.22C69.9837 238.934 70.3545 237.647 70.7167 236.358L71.6794 236.629C71.316 237.921 70.9441 239.213 70.5643 240.503L69.605 240.22ZM70.101 98.599C69.7294 97.3187 69.3516 96.0622 68.9683 94.8295L69.9231 94.5325C70.3084 95.7714 70.6881 97.0339 71.0614 98.3203L70.101 98.599ZM67.2442 247.906C67.6525 246.628 68.0535 245.349 68.447 244.068L69.4029 244.362C69.0083 245.646 68.6061 246.929 68.1967 248.21L67.2442 247.906ZM67.751 91.0474C67.3255 89.7691 66.8945 88.5182 66.4589 87.2943L67.401 86.959C67.8389 88.1894 68.2721 89.4468 68.6998 90.7315L67.751 91.0474ZM64.7175 255.539C65.1519 254.27 65.58 252.999 66.0012 251.727L66.9505 252.041C66.5282 253.316 66.0991 254.591 65.6636 255.863L64.7175 255.539ZM65.0948 83.5856C64.6187 82.3326 64.1386 81.1104 63.6555 79.9185L64.5823 79.5429C65.0681 80.7415 65.5509 81.9706 66.0296 83.2304L65.0948 83.5856ZM62.0441 263.122C62.5013 261.861 62.9529 260.599 63.3986 259.335L64.3417 259.668C63.895 260.934 63.4424 262.199 62.9842 263.463L62.0441 263.122ZM62.1251 76.2624C61.5874 75.0183 61.0476 73.8106 60.5075 72.6389L61.4156 72.2202C61.9591 73.3992 62.5021 74.6142 63.043 75.8656L62.1251 76.2624ZM59.2408 270.66C59.718 269.407 60.1903 268.152 60.6575 266.897L61.5947 267.245C61.1266 268.504 60.6534 269.761 60.1753 271.016L59.2408 270.66ZM58.8046 69.0622C58.2049 67.8425 57.6068 66.6666 57.0125 65.5338L57.898 65.0692C58.4964 66.2097 59.0985 67.3934 59.702 68.6209L58.8046 69.0622ZM56.3248 278.157C56.8192 276.911 57.3096 275.663 57.7956 274.414L58.7275 274.777C58.2407 276.028 57.7495 277.278 57.2543 278.526L56.3248 278.157ZM55.1274 62.0577C54.4582 60.8636 53.7968 59.7252 53.1468 58.6414L54.0044 58.1271C54.6594 59.2192 55.3256 60.366 55.9998 61.5687L55.1274 62.0577ZM53.3125 285.617C53.8216 284.377 54.3275 283.135 54.8298 281.891L55.757 282.266C55.254 283.511 54.7474 284.755 54.2376 285.997L53.3125 285.617ZM50.22 293.046C50.7412 291.81 51.2599 290.573 51.7756 289.334L52.6988 289.719C52.1824 290.959 51.6631 292.197 51.1414 293.434L50.22 293.046ZM51.0708 55.2992C50.3105 54.1177 49.5725 53.0162 48.8626 51.993L49.6842 51.423C50.4006 52.4556 51.1451 53.5667 51.9117 54.7581L51.0708 55.2992ZM47.063 300.446C47.5934 299.216 48.122 297.983 48.6485 296.749L49.5683 297.142C49.0413 298.377 48.5122 299.61 47.9814 300.842L47.063 300.446ZM46.5572 48.8005C45.6674 47.6183 44.8459 46.5842 44.1089 45.6932L44.8795 45.0558C45.626 45.9584 46.4571 47.0045 47.3562 48.1991L46.5572 48.8005ZM43.8566 307.826C44.3934 306.599 44.9293 305.371 45.4638 304.141L46.3809 304.54C45.846 305.771 45.3098 307 44.7727 308.227L43.8566 307.826ZM40.6135 315.195C41.1549 313.97 41.6961 312.744 42.2368 311.515L43.1521 311.918C42.6111 313.147 42.0697 314.374 41.5281 315.599L40.6135 315.195ZM40.1629 41.369L40.8371 40.6304L40.8393 40.6324L40.8445 40.6372L40.8634 40.6546C40.8797 40.6698 40.9036 40.6921 40.9347 40.7216C40.9969 40.7806 41.0883 40.8683 41.2071 40.9852C41.4447 41.219 41.792 41.5698 42.2352 42.0417L41.5063 42.7263C41.0722 42.2642 40.7341 41.9227 40.5057 41.6979C40.3915 41.5855 40.3046 41.5022 40.247 41.4476C40.2181 41.4203 40.1966 41.4001 40.1825 41.387L40.167 41.3727L40.1629 41.369ZM39.806 576.872C39.6208 576.599 39.3485 576.192 38.9986 575.657L39.8356 575.11C40.1824 575.64 40.4515 576.042 40.6336 576.311C40.7247 576.445 40.794 576.546 40.8403 576.613L40.8925 576.688L40.9054 576.707L40.9085 576.711M39.806 576.872C39.8986 577.008 39.9694 577.112 40.0173 577.181L39.806 576.872ZM40.0173 577.181L40.0717 577.26L40.0173 577.181ZM40.0894 577.285L40.0903 577.286L40.0894 577.285ZM40.0903 577.286L40.5 577L40.0903 577.286ZM40.5 577L40.9093 576.712L40.5 577ZM37.3504 322.556C37.8941 321.332 38.4384 320.106 38.9829 318.877L39.8971 319.283C39.3524 320.511 38.8081 321.738 38.2644 322.962L37.3504 322.556ZM36.8969 572.335C36.2875 571.344 35.6044 570.211 34.8595 568.94L35.7222 568.434C36.4635 569.699 37.143 570.826 37.7488 571.812L36.8969 572.335ZM34.083 329.917C34.6265 328.691 35.1715 327.463 35.7175 326.234L36.6314 326.639C36.0855 327.869 35.5406 329.097 34.9972 330.322L34.083 329.917ZM32.8998 565.523C32.289 564.435 31.6506 563.277 30.9893 562.051L31.8695 561.576C32.528 562.798 33.1636 563.951 33.7717 565.033L32.8998 565.523ZM30.8276 337.283C31.3683 336.054 31.9114 334.824 32.4564 333.591L33.371 333.995C32.8262 335.228 32.2833 336.458 31.7429 337.686L30.8276 337.283ZM27.6009 344.662C28.1351 343.431 28.6726 342.198 29.2129 340.963L30.1291 341.364C29.5891 342.598 29.052 343.83 28.5183 345.06L27.6009 344.662ZM29.1389 558.551C28.5554 557.426 27.9588 556.255 27.3519 555.038L28.2468 554.592C28.8513 555.803 29.4455 556.97 30.0266 558.091L29.1389 558.551ZM24.4211 352.061C24.9452 350.828 25.4735 349.592 26.0055 348.355L26.9242 348.75C26.3927 349.986 25.8649 351.22 25.3414 352.452L24.4211 352.061ZM25.6174 551.494C25.0642 550.341 24.5048 549.155 23.9412 547.934L24.849 547.515C25.4105 548.731 25.9678 549.913 26.5189 551.061L25.6174 551.494ZM21.3074 359.487C21.8179 358.251 22.3337 357.013 22.8542 355.771L23.7763 356.158C23.2565 357.398 22.7415 358.635 22.2317 359.869L21.3074 359.487ZM22.3181 544.351C21.7958 543.175 21.2714 541.971 20.7463 540.741L21.6661 540.349C22.1892 541.574 22.7116 542.773 23.232 543.945L22.3181 544.351ZM18.281 366.951C18.7742 365.71 19.2738 364.467 19.7792 363.221L20.7058 363.597C20.2013 364.84 19.7026 366.082 19.2103 367.32L18.281 366.951ZM19.225 537.103C18.7335 535.903 18.2427 534.681 17.7537 533.436L18.6845 533.07C19.1717 534.311 19.6607 535.529 20.1504 536.724L19.225 537.103ZM15.3653 374.459C15.8372 373.212 16.3166 371.963 16.803 370.711L17.7352 371.073C17.2498 372.322 16.7714 373.569 16.3005 374.813L15.3653 374.459ZM16.3337 529.741C15.8791 528.532 15.4271 527.303 14.9787 526.056L15.9197 525.718C16.3664 526.96 16.8168 528.184 17.2698 529.389L16.3337 529.741ZM12.5857 382.024C13.0321 380.769 13.4873 379.511 13.9508 378.25L14.8894 378.595C14.4271 379.853 13.9731 381.107 13.5279 382.359L12.5857 382.024ZM13.6729 522.338C13.2499 521.105 12.8311 519.855 12.4175 518.589L13.3681 518.278C13.7802 519.54 14.1974 520.785 14.6188 522.014L13.6729 522.338ZM9.97256 389.654C10.3886 388.388 10.8148 387.118 11.2507 385.846L12.1967 386.171C11.7622 387.439 11.3373 388.704 10.9226 389.966L9.97256 389.654ZM11.221 514.832C10.836 513.591 10.4564 512.335 10.083 511.065L11.0424 510.783C11.4144 512.048 11.7926 513.299 12.1761 514.535L11.221 514.832ZM8.99688 507.266C8.64791 506.009 8.30545 504.739 7.97016 503.456L8.93765 503.204C9.27164 504.481 9.6128 505.746 9.96042 506.998L8.99688 507.266ZM7.56213 397.351C7.94156 396.073 8.33277 394.792 8.73515 393.508L9.68941 393.807C9.28846 395.086 8.89872 396.363 8.52076 397.635L7.56213 397.351ZM7.00392 499.641C6.69242 498.37 6.38833 497.088 6.0923 495.793L7.06713 495.571C7.36199 496.86 7.66488 498.137 7.97517 499.403L7.00392 499.641ZM5.39422 405.121C5.72992 403.831 6.07911 402.537 6.44118 401.241L7.40435 401.51C7.04381 402.801 6.69615 404.089 6.36199 405.373L5.39422 405.121ZM5.24413 491.948C4.973 490.671 4.71003 489.384 4.45579 488.086L5.43713 487.894C5.69035 489.186 5.95227 490.468 6.22232 491.74L5.24413 491.948ZM3.5146 412.967C3.79842 411.665 4.09763 410.359 4.41157 409.05L5.38402 409.283C5.07163 410.586 4.77395 411.885 4.49166 413.18L3.5146 412.967ZM3.72592 484.196C3.49604 482.914 3.27497 481.623 3.06322 480.322L4.05023 480.161C4.2611 481.457 4.48127 482.743 4.71021 484.019L3.72592 484.196ZM1.97534 420.89C2.19816 419.576 2.43845 418.258 2.6955 416.936L3.67711 417.127C3.42154 418.441 3.18269 419.751 2.96126 421.057L1.97534 420.89ZM2.46015 476.418C2.27123 475.125 2.09179 473.823 1.92233 472.513L2.91406 472.384C3.08282 473.689 3.26151 474.985 3.44965 476.273L2.46015 476.418ZM1.44914 468.599C1.30258 467.296 1.16612 465.985 1.04022 464.667L2.03569 464.572C2.16105 465.885 2.29693 467.19 2.44287 468.488L1.44914 468.599ZM0.834693 428.89C0.986533 427.563 1.15817 426.232 1.34884 424.897L2.3388 425.038C2.14941 426.365 1.97896 427.686 1.82821 429.004L0.834693 428.89ZM0.699426 460.748C0.59681 459.439 0.504822 458.124 0.423897 456.801L1.42204 456.74C1.5026 458.057 1.59419 459.367 1.69636 460.669L0.699426 460.748ZM0.159538 436.946C0.229004 435.609 0.320739 434.267 0.433929 432.921L1.43041 433.005C1.31808 434.341 1.22709 435.672 1.1582 436.998L0.159538 436.946ZM0.217423 452.872C0.15992 451.563 0.11348 450.247 0.0785144 448.925L1.07816 448.898C1.11298 450.215 1.15921 451.525 1.21645 452.829L0.217423 452.872ZM3.05176e-05 443C3.04883e-05 442.331 0.00604242 441.66 0.0179671 440.989L1.01781 441.007C1.00599 441.672 1.00003 442.337 1.00003 443C1.00003 443.66 1.00298 444.318 1.00881 444.975L0.00885018 444.984C0.00299078 444.324 3.05466e-05 443.663 3.05176e-05 443Z" fill="#151515"/>
</svg>
