<svg viewBox="0 0 66 40" fill="none" xmlns="http://www.w3.org/2000/svg">
	<path
		d="M15.4876 10.3502H27.8676V11.3364H16.6227V18.7582H27.1969V19.7444H16.6227V27.8929H27.9964V28.8791H15.4876V10.3502V10.3502ZM28.9764 10.3502H30.292L36.1209 18.4987L42.0787 10.3502L50.1822 0L36.8689 19.3551L43.7293 28.8791H42.3622L36.1209 20.2116L29.8538 28.8791H28.5124L35.4244 19.3551L28.9769 10.3502H28.9764ZM44.2196 11.3364V10.3502H58.3271V11.3364H51.828V28.8787H50.6929V11.3364H44.22H44.2196ZM0 10.3502H1.41867L20.9791 39.6849L12.8956 28.8791L1.18622 11.7516L1.13467 28.8791H0V10.3502V10.3502ZM58.2133 27.5951C57.9809 27.5951 57.8071 27.4151 57.8071 27.1827C57.8071 26.9498 57.9809 26.7698 58.2129 26.7698C58.4476 26.7698 58.6187 26.9498 58.6187 27.1827C58.6187 27.4151 58.4476 27.5951 58.2129 27.5951H58.2133ZM59.328 26.5093H59.9356C59.944 26.8391 60.1844 27.0604 60.5373 27.0604C60.932 27.0604 61.1556 26.8227 61.1556 26.3764V23.5516H61.7738V26.3791C61.7738 27.1827 61.3102 27.6453 60.5427 27.6453C59.8227 27.6453 59.3284 27.1964 59.3284 26.5093H59.328ZM62.5822 26.4738H63.1951C63.2476 26.8529 63.6173 27.0938 64.1502 27.0938C64.6467 27.0938 65.0111 26.836 65.0111 26.4818C65.0111 26.1773 64.7796 25.9942 64.252 25.8698L63.7387 25.7453C63.0187 25.5764 62.6898 25.2271 62.6898 24.64C62.6898 23.928 63.2693 23.4542 64.1387 23.4542C64.9476 23.4542 65.5387 23.928 65.5742 24.6009H64.9724C64.9147 24.2329 64.5947 24.0027 64.1307 24.0027C63.6418 24.0027 63.3164 24.2382 63.3164 24.5982C63.3164 24.8836 63.5262 25.0471 64.0453 25.1689L64.484 25.2769C65.3009 25.468 65.6378 25.8004 65.6378 26.4013C65.6378 27.1658 65.0467 27.6453 64.1031 27.6453C63.22 27.6453 62.6262 27.188 62.5822 26.4733V26.4738Z"
		fill="#fff" />
</svg>