<svg width="100%" viewBox="0 0 103 35" fill="none" xmlns="http://www.w3.org/2000/svg">
	<path
		d="M19.63 20.9247C21.5495 20.9247 23.1056 19.3686 23.1056 17.4491C23.1056 15.5296 21.5495 13.9736 19.63 13.9736C17.7105 13.9736 16.1544 15.5296 16.1544 17.4491C16.1544 19.3686 17.7105 20.9247 19.63 20.9247Z"
		fill="#fff" />
	<path fill-rule="evenodd" clip-rule="evenodd"
		d="M19.6301 10.3826C24.2965 10.3826 28.6315 11.0522 31.9001 12.1774C35.8382 13.5332 38.2595 15.5883 38.2595 17.4492C38.2595 19.3883 35.6934 21.5715 31.4644 22.9727C28.2671 24.032 24.0597 24.585 19.6301 24.585C15.0885 24.585 10.7879 24.066 7.55458 22.9611C3.46387 21.5629 1 19.3514 1 17.4492C1 15.6034 3.31187 13.5642 7.19467 12.2105C10.4754 11.0667 14.9175 10.3826 19.6295 10.3826H19.6301Z"
		stroke="#fff" stroke-width="1.66272" />
	<path fill-rule="evenodd" clip-rule="evenodd"
		d="M13.4784 13.9362C15.8097 9.89388 18.5553 6.47311 21.163 4.20378C24.3048 1.46957 27.2947 0.398783 28.9067 1.32831C30.5866 2.29705 31.1958 5.61079 30.2969 9.97418C29.618 13.2732 27.9945 17.194 25.7815 21.0313C23.5126 24.9655 20.9146 28.4318 18.3424 30.68C15.0877 33.5252 11.941 34.5549 10.2932 33.6045C8.69417 32.6831 8.0827 29.6611 8.84977 25.6212C9.49789 22.2078 11.1244 18.0181 13.4777 13.9362L13.4784 13.9362Z"
		stroke="#fff" stroke-width="1.66272" />
	<path fill-rule="evenodd" clip-rule="evenodd"
		d="M13.4843 21.0416C11.1464 17.0038 9.55469 12.9159 8.8903 9.52344C8.09053 5.43592 8.65599 2.3107 10.2665 1.37847C11.9447 0.406886 15.1199 1.53393 18.4512 4.49191C20.97 6.72827 23.5563 10.0923 25.7757 13.926C28.0511 17.8564 29.7565 21.8384 30.42 25.1897C31.2594 29.4305 30.58 32.6708 28.9337 33.6238C27.3363 34.5486 24.4132 33.5695 21.2963 30.8872C18.6627 28.6211 15.8452 25.1195 13.4843 21.0415V21.0416Z"
		stroke="#fff" stroke-width="1.66272" />
	<path fill-rule="evenodd" clip-rule="evenodd"
		d="M58.2096 26.329L53.9496 19.893C56.1026 19.703 58.0426 18.143 58.0426 15.293C58.0426 12.393 55.9846 10.537 53.0976 10.537H46.7576V26.317H48.7216V20.047H51.8686L55.8906 26.317L58.2096 26.329ZM52.8626 18.332H48.7226V12.299H52.8626C54.7326 12.299 56.0096 13.529 56.0096 15.304C56.0096 17.079 54.7316 18.334 52.8626 18.334V18.332ZM65.5206 26.612C67.3906 26.612 68.9276 25.997 70.0636 24.862L69.2116 23.702C68.3116 24.625 66.9876 25.145 65.6866 25.145C63.2266 25.145 61.7116 23.347 61.5696 21.195H70.8196V20.745C70.8196 17.315 68.7846 14.617 65.3296 14.617C62.0646 14.617 59.6996 17.291 59.6996 20.603C59.6996 24.176 62.1366 26.603 65.5196 26.603L65.5206 26.612ZM69.0706 19.892H61.5706C61.6656 18.142 62.8706 16.082 65.3086 16.082C67.9116 16.082 69.0466 18.188 69.0706 19.892ZM82.6046 26.328V18.473C82.6046 15.705 80.5946 14.616 78.1806 14.616C76.3106 14.616 74.8446 15.231 73.6146 16.509L74.4426 17.739C75.4596 16.651 76.5726 16.154 77.9446 16.154C79.6006 16.154 80.8316 17.029 80.8316 18.567V20.625C79.9086 19.56 78.6076 19.063 77.0456 19.063C75.1056 19.063 73.0456 20.27 73.0456 22.825C73.0456 25.309 75.1036 26.611 77.0456 26.611C78.5836 26.611 79.8856 26.067 80.8316 25.026V26.326L82.6046 26.328ZM77.6846 25.334C76.0286 25.334 74.8686 24.294 74.8686 22.85C74.8686 21.383 76.0286 20.342 77.6846 20.342C78.9386 20.342 80.1446 20.815 80.8316 21.762V23.915C80.1456 24.861 78.9386 25.335 77.6846 25.335V25.334ZM91.1846 26.612C93.2666 26.612 94.4966 25.76 95.3726 24.625L94.1896 23.537C93.4326 24.554 92.4626 25.027 91.2896 25.027C88.8526 25.027 87.3396 23.134 87.3396 20.603C87.3396 18.072 88.8536 16.203 91.2896 16.203C92.4726 16.203 93.4426 16.653 94.1896 17.693L95.3726 16.605C94.4976 15.469 93.2666 14.618 91.1846 14.618C87.7776 14.618 85.4826 17.221 85.4826 20.604C85.4826 24.011 87.7776 26.604 91.1846 26.604V26.612ZM100.745 26.612C101.785 26.612 102.425 26.304 102.875 25.879L102.355 24.554C102.118 24.814 101.655 25.027 101.148 25.027C100.368 25.027 99.9876 24.412 99.9876 23.56V16.462H102.308V14.901H99.9876V11.778H98.2126V14.901H96.3196V16.463H98.2126V23.94C98.2126 25.644 99.0646 26.614 100.745 26.614V26.612Z"
		fill="#fff" />
</svg>