<svg width="248" height="467" viewBox="0 0 248 467" fill="none" xmlns="http://www.w3.org/2000/svg">
<path fill-rule="evenodd" clip-rule="evenodd" d="M246.067 283.678C246.053 285.014 246.023 286.353 245.977 287.697L246.976 287.731C247.023 286.38 247.053 285.032 247.067 283.688L246.067 283.678ZM245.954 275.617C246.006 276.953 246.041 278.293 246.06 279.637L247.06 279.623C247.041 278.271 247.005 276.923 246.953 275.579L245.954 275.617ZM245.789 291.735C245.712 293.068 245.618 294.405 245.509 295.744L246.506 295.825C246.615 294.478 246.709 293.134 246.787 291.793L245.789 291.735ZM245.436 267.575C245.556 268.907 245.659 270.243 245.746 271.584L246.744 271.52C246.657 270.17 246.553 268.825 246.432 267.485L245.436 267.575ZM245.135 299.771C244.996 301.099 244.842 302.43 244.673 303.763L245.665 303.889C245.835 302.548 245.99 301.21 246.129 299.875L245.135 299.771ZM244.501 259.569C244.692 260.894 244.865 262.224 245.02 263.558L246.014 263.442C245.857 262.099 245.683 260.761 245.491 259.427L244.501 259.569ZM244.12 307.769C243.923 309.089 243.711 310.413 243.484 311.738L244.469 311.907C244.697 310.574 244.911 309.244 245.109 307.916L244.12 307.769ZM243.141 251.626C243.403 252.94 243.647 254.259 243.874 255.583L244.859 255.414C244.631 254.081 244.385 252.753 244.121 251.431L243.141 251.626ZM242.76 315.715C242.507 317.027 242.239 318.341 241.958 319.657L242.935 319.866C243.219 318.544 243.488 317.223 243.742 315.904L242.76 315.715ZM241.347 243.77C241.682 245.069 241.998 246.373 242.297 247.682L243.272 247.46C242.971 246.141 242.652 244.828 242.315 243.521L241.347 243.77ZM241.072 323.598C240.765 324.9 240.445 326.204 240.11 327.509L241.079 327.757C241.415 326.446 241.737 325.136 242.045 323.827L241.072 323.598ZM239.117 236.028C239.525 237.307 239.914 238.591 240.286 239.882L241.247 239.605C240.873 238.305 240.48 237.012 240.07 235.724L239.117 236.028ZM239.071 331.409C238.89 332.059 238.707 332.71 238.52 333.362C238.337 333.996 238.151 334.628 237.961 335.256L238.919 335.545C239.11 334.913 239.297 334.277 239.481 333.638C239.669 332.983 239.853 332.329 240.034 331.676L239.071 331.409ZM236.452 228.426C236.932 229.68 237.394 230.94 237.839 232.207L238.782 231.876C238.335 230.6 237.869 229.331 237.385 228.068L236.452 228.426ZM236.779 338.988C236.368 340.228 235.942 341.455 235.502 342.67L236.442 343.01C236.885 341.787 237.314 340.552 237.728 339.303L236.779 338.988ZM233.354 220.99C233.907 222.215 234.441 223.447 234.957 224.685L235.88 224.301C235.36 223.053 234.822 221.812 234.266 220.579L233.354 220.99ZM234.116 346.339C233.639 347.553 233.147 348.753 232.643 349.94L233.563 350.332C234.071 349.136 234.566 347.927 235.047 346.706L234.116 346.339ZM229.834 213.745C230.456 214.936 231.06 216.136 231.647 217.342L232.546 216.905C231.956 215.69 231.347 214.482 230.721 213.282L229.834 213.745ZM231.057 353.533C230.515 354.717 229.959 355.888 229.39 357.046L230.288 357.487C230.86 356.321 231.42 355.142 231.966 353.95L231.057 353.533ZM225.903 206.714C226.593 207.869 227.265 209.031 227.919 210.201L228.792 209.713C228.133 208.535 227.456 207.364 226.761 206.201L225.903 206.714ZM227.61 360.549C227.004 361.703 226.384 362.844 225.753 363.971L226.625 364.46C227.261 363.325 227.885 362.177 228.495 361.014L227.61 360.549ZM223.788 367.369C223.12 368.49 222.44 369.596 221.749 370.689L222.594 371.224C223.29 370.123 223.975 369.009 224.647 367.881L223.788 367.369ZM221.576 199.92C222.331 201.034 223.068 202.156 223.787 203.286L224.631 202.748C223.906 201.611 223.164 200.481 222.404 199.359L221.576 199.92ZM219.608 373.976C218.882 375.06 218.144 376.13 217.396 377.186L218.212 377.764C218.965 376.701 219.708 375.624 220.439 374.533L219.608 373.976ZM216.873 193.379C217.689 194.45 218.488 195.529 219.269 196.615L220.081 196.032C219.294 194.937 218.49 193.851 217.668 192.773L216.873 193.379ZM215.088 380.357C214.307 381.402 213.516 382.433 212.715 383.45L213.501 384.069C214.306 383.045 215.103 382.008 215.889 380.956L215.088 380.357ZM211.815 187.108C212.689 188.133 213.546 189.166 214.386 190.208L215.164 189.58C214.318 188.532 213.456 187.491 212.576 186.459L211.815 187.108ZM210.249 386.502C209.417 387.506 208.576 388.496 207.726 389.472L208.48 390.128C209.335 389.147 210.182 388.15 211.019 387.14L210.249 386.502ZM206.425 181.118C207.353 182.096 208.264 183.082 209.159 184.076L209.903 183.407C209.002 182.407 208.085 181.414 207.151 180.43L206.425 181.118ZM205.113 392.401C204.233 393.365 203.345 394.314 202.45 395.249L203.172 395.94C204.072 395 204.966 394.045 205.851 393.076L205.113 392.401ZM200.728 175.417C201.706 176.347 202.668 177.285 203.614 178.231L204.321 177.524C203.369 176.572 202.401 175.628 201.417 174.692L200.728 175.417ZM199.702 398.052C198.777 398.974 197.845 399.883 196.908 400.776L197.598 401.5C198.54 400.601 199.478 399.688 200.408 398.76L199.702 398.052ZM194.748 170.01C195.773 170.892 196.781 171.781 197.775 172.679L198.445 171.937C197.446 171.034 196.431 170.139 195.401 169.252L194.748 170.01ZM194.039 403.45C193.072 404.332 192.099 405.199 191.123 406.052L191.781 406.805C192.762 405.948 193.74 405.076 194.713 404.189L194.039 403.45ZM188.51 164.9C189.577 165.732 190.629 166.574 191.667 167.424L192.3 166.65C191.257 165.795 190.198 164.949 189.125 164.111L188.51 164.9ZM188.146 408.595C187.139 409.437 186.129 410.264 185.117 411.075L185.742 411.856C186.76 411.04 187.775 410.209 188.788 409.362L188.146 408.595ZM182.035 160.083C183.143 160.869 184.236 161.663 185.314 162.465L185.911 161.662C184.826 160.856 183.727 160.057 182.614 159.268L182.035 160.083ZM182.044 413.487C181 414.29 179.955 415.077 178.909 415.848L179.503 416.653C180.554 415.878 181.604 415.087 182.654 414.28L182.044 413.487ZM175.36 155.567C176.5 156.303 177.627 157.048 178.739 157.801L179.3 156.972C178.181 156.215 177.049 155.467 175.902 154.727L175.36 155.567ZM175.752 418.13C174.674 418.894 173.596 419.641 172.52 420.372L173.083 421.199C174.164 420.465 175.247 419.714 176.33 418.946L175.752 418.13ZM168.502 151.342C169.67 152.029 170.824 152.723 171.965 153.426L172.489 152.575C171.343 151.868 170.183 151.17 169.009 150.48L168.502 151.342ZM169.268 422.54C168.165 423.259 167.066 423.962 165.972 424.648L166.503 425.496C167.603 424.806 168.707 424.1 169.814 423.377L169.268 422.54ZM161.477 147.398C162.667 148.036 163.844 148.682 165.009 149.335L165.498 148.463C164.328 147.806 163.145 147.158 161.949 146.517L161.477 147.398ZM162.627 426.704C161.502 427.381 160.383 428.041 159.272 428.684L159.772 429.549C160.889 428.904 162.013 428.241 163.143 427.56L162.627 426.704ZM154.3 143.727C155.508 144.317 156.704 144.915 157.888 145.52L158.344 144.63C157.154 144.021 155.952 143.421 154.738 142.828L154.3 143.727ZM155.852 430.622C154.694 431.265 153.545 431.889 152.407 432.495L152.878 433.378C154.02 432.769 155.174 432.142 156.338 431.496L155.852 430.622ZM146.985 140.318C148.214 140.865 149.432 141.419 150.637 141.981L151.06 141.074C149.848 140.51 148.625 139.953 147.391 139.405L146.985 140.318ZM148.955 434.297C147.769 434.904 146.597 435.49 145.443 436.056L145.883 436.954C147.042 436.386 148.219 435.797 149.411 435.188L148.955 434.297ZM139.543 137.163C140.801 137.672 142.046 138.187 143.281 138.711L143.671 137.79C142.431 137.264 141.18 136.746 139.918 136.236L139.543 137.163ZM141.9 437.755C140.692 438.322 139.506 438.866 138.345 439.387L138.755 440.299C139.921 439.776 141.112 439.23 142.325 438.66L141.9 437.755ZM132.007 134.26C133.285 134.729 134.552 135.205 135.808 135.689L136.168 134.756C134.907 134.27 133.635 133.792 132.352 133.321L132.007 134.26ZM134.776 440.953C133.541 441.483 132.34 441.985 131.176 442.461L131.555 443.387C132.724 442.909 133.93 442.405 135.17 441.873L134.776 440.953ZM124.41 131.604C125.693 132.031 126.966 132.465 128.229 132.907L128.559 131.963C127.291 131.52 126.014 131.084 124.725 130.656L124.41 131.604ZM127.53 443.915C126.25 444.412 125.028 444.873 123.87 445.298L124.215 446.237C125.379 445.809 126.606 445.346 127.892 444.847L127.53 443.915ZM116.721 129.173C118.007 129.559 119.283 129.952 120.55 130.353L120.851 129.399C119.58 128.998 118.299 128.603 117.008 128.215L116.721 129.173ZM120.182 446.614C118.793 447.094 117.537 447.51 116.43 447.866L116.735 448.818C117.849 448.46 119.112 448.042 120.509 447.559L120.182 446.614ZM110.866 127.482C111.524 127.664 112.18 127.849 112.832 128.035L113.107 127.073C112.451 126.886 111.794 126.701 111.134 126.518C110.489 126.339 109.849 126.158 109.212 125.975L108.936 126.937C109.576 127.12 110.219 127.302 110.866 127.482ZM112.686 449.013C112.095 449.184 111.641 449.31 111.336 449.393C111.183 449.434 111.068 449.465 110.991 449.485L110.904 449.508L110.883 449.514L110.878 449.515L110.877 449.515L110.876 449.515L111 450L111.123 450.484L111.124 450.484L111.126 450.484L111.132 450.482L111.155 450.476L111.245 450.453C111.325 450.432 111.443 450.4 111.598 450.358C111.909 450.274 112.368 450.146 112.964 449.973L112.686 449.013ZM101.438 124.636C102.658 125.035 103.893 125.426 105.142 125.81L105.436 124.854C104.192 124.472 102.963 124.083 101.749 123.685L101.438 124.636ZM93.9822 122.036C95.2005 122.488 96.4347 122.932 97.6849 123.368L98.0142 122.424C96.7701 121.99 95.5422 121.548 94.3301 121.098L93.9822 122.036ZM86.6646 119.149C87.8759 119.656 89.1041 120.155 90.3495 120.646L90.7162 119.716C89.4774 119.228 88.2557 118.731 87.0511 118.226L86.6646 119.149ZM79.4918 115.958C80.6708 116.514 81.8673 117.062 83.0816 117.602L83.4878 116.688C82.2803 116.151 81.0906 115.606 79.9184 115.054L79.4918 115.958ZM72.4755 112.449C73.6161 113.053 74.7748 113.65 75.9517 114.238L76.399 113.344C75.229 112.759 74.0774 112.166 72.9437 111.565L72.4755 112.449ZM65.6333 108.607C66.7362 109.263 67.8576 109.911 68.998 110.552L69.4877 109.68C68.3545 109.043 67.2401 108.399 66.1443 107.748L65.6333 108.607ZM58.9645 104.407C60.0363 105.122 61.1278 105.829 62.2391 106.53L62.7722 105.684C61.6682 104.988 60.584 104.285 59.5194 103.575L58.9645 104.407ZM52.5333 99.8618C53.5676 100.636 54.6222 101.403 55.6978 102.164L56.275 101.347C55.2068 100.592 54.1595 99.8299 53.1326 99.0612L52.5333 99.8618ZM46.3671 94.9707C47.3569 95.8027 48.3681 96.6288 49.4011 97.4482L50.0226 96.6647C48.997 95.8512 47.9932 95.0312 47.0105 94.2052L46.3671 94.9707ZM40.4941 89.7361C41.4333 90.6239 42.3944 91.5066 43.3781 92.3835L44.0435 91.637C43.0672 90.7666 42.1132 89.8905 41.1811 89.0094L40.4941 89.7361ZM34.9434 84.1662C35.826 85.1067 36.7311 86.0432 37.6593 86.9748L38.3677 86.2691C37.4466 85.3445 36.5484 84.4152 35.6726 83.4819L34.9434 84.1662ZM29.7285 78.2579C30.5537 79.2527 31.4022 80.2449 32.2746 81.2335L33.0244 80.5719C32.1588 79.5909 31.3169 78.6065 30.4982 77.6194L29.7285 78.2579ZM24.8839 72.0362C25.6491 73.0843 26.4382 74.1315 27.252 75.1767L28.041 74.5624C27.2336 73.5253 26.4507 72.4864 25.6916 71.4465L24.8839 72.0362ZM20.4379 65.5309C21.1393 66.6289 21.8653 67.7282 22.6168 68.8274L23.4423 68.2631C22.6968 67.1725 21.9765 66.0819 21.2806 64.9926L20.4379 65.5309ZM16.4104 58.7733C17.0415 59.9108 17.6975 61.0521 18.3794 62.196L19.2383 61.684C18.5618 60.549 17.9109 59.4167 17.2848 58.2882L16.4104 58.7733ZM12.811 51.7867C13.3658 52.95 13.9455 54.1204 14.5512 55.2964L15.4402 54.8385C14.8393 53.6717 14.2641 52.5104 13.7136 51.3562L12.811 51.7867ZM9.6326 44.5596C10.1175 45.7606 10.6281 46.9731 11.1656 48.1955L12.081 47.7929C11.5477 46.5801 11.0411 45.3769 10.5599 44.1852L9.6326 44.5596ZM6.91605 37.1988C7.32355 38.4146 7.75676 39.6475 8.2173 40.8956L9.15546 40.5494C8.69847 39.311 8.26859 38.0874 7.8642 36.881L6.91605 37.1988ZM4.63269 29.6335C4.96629 30.8734 5.32655 32.1393 5.71564 33.4286L6.67299 33.1397C6.2869 31.8603 5.92938 30.604 5.59836 29.3736L4.63269 29.6335ZM2.8183 21.9685C3.07265 23.2115 3.35451 24.4945 3.66681 25.8136L4.63991 25.5833C4.33002 24.2743 4.05035 23.0013 3.79801 21.768L2.8183 21.9685ZM1.482 14.2019C1.65349 15.4344 1.85411 16.735 2.08873 18.0971L3.07422 17.9273C2.84149 16.5762 2.6425 15.2863 2.47246 14.0641L1.482 14.2019ZM0.669251 6.37478C0.746079 7.53448 0.854294 8.84793 1.00594 10.2993L2.00052 10.1953C1.85025 8.75712 1.74309 7.45629 1.66707 6.30867L0.669251 6.37478ZM1.00009 0.499756L0.500427 0.481404L0.500412 0.481666L0.500397 0.48223L0.500336 0.484089L0.500107 0.490727L0.499313 0.515621C0.498642 0.537359 0.497742 0.569348 0.496735 0.611408C0.49472 0.695527 0.492279 0.819927 0.490555 0.98315C0.487076 1.30959 0.486374 1.79135 0.497345 2.41674L1.49719 2.39921C1.4864 1.78355 1.48712 1.31119 1.49049 0.993791C1.49219 0.835091 1.49454 0.715134 1.49644 0.635376C1.49741 0.595497 1.49825 0.565669 1.49884 0.546073L1.49954 0.524376L1.49971 0.519326L1.49976 0.518258V0.51809L1.00009 0.499756ZM128.005 465.933L96.6123 457.522L105.024 426.129L104.058 425.87L95.5169 457.746L95.3875 458.229L95.8705 458.358L127.746 466.899L128.005 465.933Z" fill="white"/>
</svg>
