<svg width="100%" viewBox="0 0 512 125" fill="none" xmlns="http://www.w3.org/2000/svg">
<g clip-path="url(#Frame_clip0-3-20)">
<path d="M166.663 96.865C161.242 97.0015 155.907 95.4941 151.359 92.541C147.11 89.739 143.955 85.56 142.423 80.706L151.739 77.284C153.03 80.2654 155.139 82.8198 157.823 84.651C160.547 86.476 163.765 87.4215 167.043 87.36C170.193 87.524 173.303 86.583 175.835 84.699C176.936 83.7745 177.806 82.6054 178.376 81.285C178.945 79.9647 179.198 78.5295 179.115 77.094C179.128 75.7566 178.818 74.436 178.211 73.244C177.684 72.1776 176.994 71.1993 176.167 70.344C175.121 69.3919 173.935 68.6063 172.65 68.015C171.065 67.225 169.75 66.622 168.706 66.209C167.66 65.799 166.123 65.244 164.096 64.546C161.56 63.659 159.659 62.962 158.392 62.456C156.676 61.7254 155.009 60.8836 153.402 59.936C151.673 59.0183 150.1 57.8311 148.744 56.419C147.571 55.0408 146.624 53.4847 145.94 51.809C144.627 48.6134 144.352 45.0861 145.154 41.7257C145.955 38.3652 147.793 35.3418 150.407 33.083C154.21 29.724 159.375 28.045 165.902 28.045C171.351 28.045 175.834 29.249 179.352 31.657C182.766 33.9271 185.273 37.3258 186.433 41.258L177.308 44.299C176.391 42.2397 174.843 40.5254 172.888 39.404C170.523 38.0919 167.844 37.4508 165.141 37.55C162.49 37.3982 159.865 38.1343 157.679 39.642C156.786 40.3336 156.074 41.2305 155.602 42.2565C155.13 43.2824 154.913 44.4071 154.969 45.535C154.977 46.3998 155.167 47.2533 155.528 48.0395C155.888 48.8258 156.41 49.5272 157.06 50.098C158.323 51.3416 159.806 52.3408 161.433 53.045C162.955 53.679 165.268 54.534 168.373 55.611C170.273 56.309 171.683 56.832 172.602 57.18C173.521 57.527 174.868 58.113 176.642 58.938C178.064 59.568 179.432 60.315 180.729 61.172C181.891 62.0081 183.002 62.913 184.056 63.882C185.202 64.8756 186.181 66.0465 186.956 67.35C187.694 68.7027 188.268 70.1385 188.666 71.627C189.151 73.3757 189.392 75.1832 189.381 76.998C189.381 83.21 187.257 88.073 183.011 91.588C178.765 95.107 173.316 96.866 166.663 96.865V96.865ZM227.592 95.725L204.778 29.185H215.425L230.539 75.573C231.375 78.0675 232.073 80.606 232.63 83.177C233.187 80.6057 233.885 78.0672 234.722 75.573L249.645 29.185H260.197L237.477 95.725H227.592ZM280.347 95.725V29.185H321.602V38.501H290.234V56.752H310.479V66.068H290.234V86.408H323.692V95.725H280.347ZM348.881 95.725V29.185H358.768V86.22H391.277V95.726L348.881 95.725ZM428.537 38.691V95.725H418.65V38.69H399.83V29.185H447.358V38.69L428.537 38.691ZM467.794 95.725V29.185H509.049V38.501H477.681V56.752H497.927V66.068H477.681V86.408H511.14V95.725H467.794Z" fill="white"/>
<path d="M97.329 16.53C85.728 -0.0740013 62.816 -4.995 46.249 5.56L17.156 24.103C13.2254 26.5755 9.85386 29.8409 7.25706 33.6906C4.66026 37.5403 2.8953 41.8894 2.07501 46.46C0.687343 54.1589 1.9074 62.1007 5.54201 69.028C3.05196 72.8058 1.35375 77.0493 0.550007 81.502C-0.278877 86.1645 -0.168398 90.9456 0.874965 95.5648C1.91833 100.184 3.87357 104.548 6.62601 108.402C18.23 125.008 41.142 129.927 57.706 119.372L86.8 100.83C90.7308 98.3575 94.1023 95.0919 96.699 91.2421C99.2956 87.3922 101.06 83.0428 101.88 78.472C103.267 70.7733 102.048 62.8319 98.415 55.904C100.904 52.1261 102.602 47.8826 103.405 43.43C104.235 38.7676 104.124 33.9864 103.081 29.3671C102.038 24.7478 100.083 20.3834 97.33 16.53" fill="white"/>
<path d="M43.407 109.965C38.8286 111.155 33.9953 110.912 29.5598 109.267C25.1243 107.623 21.3002 104.657 18.604 100.77C16.9484 98.4527 15.7722 95.8281 15.1446 93.0502C14.517 90.2723 14.4505 87.397 14.949 84.593C15.117 83.673 15.349 82.765 15.644 81.876L16.192 80.206L17.682 81.3C21.1244 83.8295 24.9733 85.7528 29.063 86.987L30.145 87.315L30.045 88.394C29.9129 89.9294 30.3289 91.462 31.219 92.72C32.0305 93.8908 33.1817 94.7843 34.5172 95.28C35.8527 95.7757 37.3081 95.8497 38.687 95.492C39.3193 95.3228 39.922 95.0577 40.474 94.706L69.569 76.166C70.2809 75.7176 70.8915 75.1258 71.3621 74.4283C71.8326 73.7308 72.1527 72.943 72.302 72.115C72.4514 71.2699 72.431 70.4034 72.242 69.5662C72.053 68.7291 71.6991 67.9379 71.201 67.239C70.389 66.0677 69.2371 65.1738 67.9009 64.6779C66.5647 64.182 65.1086 64.1081 63.729 64.466C63.0978 64.6348 62.4962 64.8992 61.945 65.25L50.842 72.328C49.0163 73.4886 47.024 74.3634 44.934 74.922C40.3556 76.1124 35.5221 75.8691 31.0864 74.225C26.6507 72.5808 22.8264 69.615 20.13 65.728C18.4744 63.4107 17.2982 60.7861 16.6706 58.0082C16.043 55.2303 15.9765 52.355 16.475 49.551C16.968 46.8027 18.0292 44.1875 19.5906 41.8727C21.152 39.5579 23.1794 37.5945 25.543 36.108L54.636 17.565C56.4625 16.4025 58.4563 15.5267 60.548 14.968C65.1264 13.7776 69.9599 14.0209 74.3956 15.665C78.8313 17.3092 82.6556 20.275 85.352 24.162C87.0076 26.4793 88.1838 29.1039 88.8114 31.8818C89.439 34.6597 89.5055 37.535 89.007 40.339C88.837 41.259 88.605 42.168 88.312 43.056L87.764 44.727L86.274 43.634C82.8318 41.1031 78.9824 39.1791 74.892 37.945L73.811 37.617L73.911 36.537C74.0418 35.002 73.626 33.4702 72.737 32.212C71.9255 31.0412 70.7743 30.1477 69.4388 29.652C68.1033 29.1563 66.6479 29.0823 65.269 29.44C64.6367 29.6089 64.0341 29.8736 63.482 30.225L34.387 48.767C33.675 49.215 33.0643 49.8065 32.5939 50.5039C32.1235 51.2012 31.8037 51.9891 31.655 52.817C31.5046 53.6622 31.5244 54.5288 31.7131 55.3662C31.9018 56.2037 32.2557 56.995 32.754 57.694C33.566 58.8651 34.7177 59.7589 36.0537 60.2547C37.3896 60.7506 38.8456 60.8247 40.225 60.467C40.8571 60.2978 41.4598 60.0331 42.012 59.682L53.113 52.607C54.9381 51.4448 56.9306 50.5693 59.021 50.011C63.5994 48.8206 68.4329 49.0639 72.8686 50.708C77.3043 52.3522 81.1286 55.318 83.825 59.205C85.4806 61.5223 86.6568 64.1469 87.2844 66.9248C87.912 69.7027 87.9785 72.578 87.48 75.382C86.9866 78.1306 85.9251 80.7459 84.3635 83.061C82.802 85.3761 80.7746 87.3399 78.411 88.827L49.319 107.367C47.4926 108.53 45.4988 109.406 43.407 109.965" fill="#151515"/>
</g>
<defs>
<clipPath id="Frame_clip0-3-20">
<rect width="511.14" height="124.932" fill="white"/>
</clipPath>
</defs>
</svg>
