<svg width="100%" viewBox="0 0 105 37" fill="none" xmlns="http://www.w3.org/2000/svg">
	<path fill-rule="evenodd" clip-rule="evenodd"
		d="M34.4942 0.00750732H42.9762L21.5586 36.9153L0 0.00750732H8.675L21.5586 22.2267L34.4942 0.00750732Z"
		fill="#fff" />
	<path fill-rule="evenodd" clip-rule="evenodd"
		d="M26.4781 0H34.5453L21.5473 22.2655L8.65363 0H16.5947L21.5473 8.57188L26.4781 0Z" fill="#151515" />
	<path fill-rule="evenodd" clip-rule="evenodd"
		d="M48.0375 7.28629C48.0375 7.01402 48.1887 6.78712 48.491 6.60559C48.7933 6.42407 49.1093 6.33331 49.439 6.33331C49.897 6.33331 50.181 6.50575 50.2909 6.85065L55.1275 23.0237L59.9366 6.85065C60.0649 6.50577 60.3397 6.33331 60.7611 6.33331C61.1091 6.33331 61.4343 6.43314 61.7366 6.63281C62.0389 6.83248 62.19 7.05938 62.19 7.31351C62.19 7.33166 62.1856 7.3589 62.1763 7.3952C62.1671 7.4315 62.1626 7.4678 62.1626 7.5041L56.584 25.6104C56.3825 26.1368 55.897 26.4 55.1276 26.4C54.3581 26.4 53.8909 26.1368 53.7261 25.6104L48.0928 7.50411C48.0561 7.3952 48.0378 7.32259 48.0378 7.28629H48.0375ZM62.4066 21.2266V14.1476C62.4066 13.9298 62.5211 13.7392 62.7501 13.5758C62.9791 13.4125 63.2493 13.3308 63.5608 13.3308C63.8539 13.3308 64.115 13.417 64.344 13.5894C64.573 13.7619 64.6875 13.9479 64.6875 14.1476V21.2266C64.6875 22.0434 64.9989 22.7785 65.6218 23.432C66.2447 24.0854 66.9867 24.4122 67.8478 24.4122C68.6905 24.4122 69.4233 24.09 70.0462 23.4456C70.6691 22.8012 70.9805 22.0615 70.9805 21.2266V14.1199C70.9805 13.9203 71.095 13.7388 71.3241 13.5754C71.5531 13.4121 71.8233 13.3304 72.1347 13.3304C72.4645 13.3304 72.7347 13.4075 72.9454 13.5618C73.1561 13.7161 73.2615 13.9021 73.2615 14.12V21.2266C73.2615 22.6243 72.7256 23.8449 71.6539 24.8887C70.5821 25.9324 69.3134 26.4542 67.8478 26.4542C66.3639 26.4542 65.086 25.9324 64.0143 24.8887C62.9425 23.8449 62.4067 22.6243 62.4067 21.2266H62.4066ZM75.1264 21.1721V18.3132C75.1264 16.9155 75.6623 15.7085 76.734 14.692C77.8057 13.6755 79.0927 13.1672 80.595 13.1672C82.0241 13.1672 83.2607 13.6437 84.3049 14.5967C85.3492 15.5497 85.8713 16.7431 85.8713 18.1771C85.8713 18.7035 85.8072 19.1255 85.679 19.4432C85.5507 19.7609 85.3538 19.9877 85.0881 20.1239C84.8225 20.26 84.5752 20.3463 84.3462 20.3826C84.1171 20.4189 83.8103 20.437 83.4255 20.437H77.4072V21.2539C77.4072 22.2522 77.769 23.0509 78.4927 23.6499C79.2164 24.2489 80.1552 24.5484 81.3094 24.5484C81.914 24.5484 82.4407 24.4576 82.8895 24.2761C83.3384 24.0946 83.7002 23.9176 83.975 23.7452C84.2498 23.5728 84.4697 23.4865 84.6346 23.4865C84.8911 23.4865 85.1109 23.6 85.2941 23.8269C85.4773 24.0538 85.5689 24.2852 85.5689 24.5212C85.5689 24.9387 85.1521 25.3652 84.3186 25.8008C83.485 26.2365 82.4544 26.4543 81.227 26.4543C79.4316 26.4543 77.966 25.9687 76.8301 24.9976C75.6943 24.0265 75.1263 22.7514 75.1263 21.1722L75.1264 21.1721ZM77.4073 18.9123H82.4912C82.9675 18.9123 83.2881 18.8533 83.453 18.7353C83.6179 18.6173 83.7003 18.3859 83.7003 18.041C83.7003 17.2242 83.3981 16.5072 82.7935 15.89C82.1889 15.2728 81.447 14.9643 80.5676 14.9643C79.7065 14.9643 78.9645 15.2502 78.3416 15.8219C77.7187 16.3937 77.4073 17.0971 77.4073 17.932L77.4073 18.9123ZM87.0222 24.9839C87.0222 24.5845 87.1596 24.2442 87.4344 23.9629C87.7092 23.6815 88.0481 23.5409 88.4511 23.5409C88.8359 23.5409 89.1656 23.6815 89.4404 23.9629C89.7152 24.2442 89.8526 24.5846 89.8526 24.9839C89.8526 25.3651 89.7152 25.6964 89.4404 25.9777C89.1656 26.259 88.8359 26.3997 88.4511 26.3997C88.0481 26.3997 87.7092 26.259 87.4344 25.9777C87.1596 25.6963 87.0222 25.3651 87.0222 24.9839ZM89.0523 31.4913C89.0523 31.2009 89.1439 30.9604 89.3271 30.7698C89.5103 30.5792 89.7302 30.4839 89.9866 30.4839C90.7011 30.4839 91.1683 30.2207 91.3882 29.6943C91.608 29.168 91.7179 28.3784 91.7179 27.3256V14.1202C91.7179 13.8842 91.8233 13.6936 92.034 13.5484C92.2447 13.4032 92.5149 13.3306 92.8447 13.3306C93.1744 13.3306 93.4492 13.4032 93.6691 13.5484C93.8889 13.6936 93.9988 13.8842 93.9988 14.1202V27.3256C93.9988 28.9048 93.6874 30.1572 93.0645 31.0829C92.4416 32.0087 91.4981 32.4715 90.234 32.4715C89.4462 32.4715 89.0524 32.1448 89.0524 31.4914L89.0523 31.4913ZM91.4156 8.48406C91.4156 8.13918 91.553 7.8397 91.8278 7.58555C92.1026 7.33143 92.4416 7.20437 92.8446 7.20437C93.2293 7.20437 93.5591 7.33143 93.8339 7.58555C94.1087 7.83968 94.2461 8.13918 94.2461 8.48406C94.2461 8.82894 94.1087 9.13299 93.8339 9.39619C93.5591 9.65938 93.2293 9.79099 92.8446 9.79099C92.4599 9.79099 92.1255 9.65939 91.8415 9.39619C91.5576 9.13299 91.4156 8.82894 91.4156 8.48406H91.4156ZM95.6991 24.3847C95.6991 24.1487 95.7769 23.9173 95.9327 23.6904C96.0885 23.4635 96.2762 23.3501 96.4961 23.3501C96.6426 23.3501 96.8533 23.459 97.1281 23.6768C97.4029 23.8946 97.7968 24.1079 98.3098 24.3167C98.8227 24.5254 99.4273 24.6298 100.123 24.6298C101.04 24.6298 101.704 24.4664 102.116 24.1397C102.528 23.813 102.734 23.4045 102.734 22.9145C102.734 22.3154 102.505 21.839 102.047 21.485C101.589 21.131 101.03 20.8633 100.371 20.6818C99.7112 20.5003 99.0517 20.3006 98.3921 20.0828C97.7326 19.8649 97.1738 19.5019 96.7158 18.9937C96.2578 18.4854 96.0288 17.8138 96.0288 16.9788C96.0288 15.9442 96.3998 15.0502 97.1417 14.2969C97.8837 13.5437 99.015 13.167 100.536 13.167C101.507 13.167 102.395 13.3168 103.201 13.6163C104.007 13.9158 104.41 14.2561 104.41 14.6373C104.41 14.8551 104.323 15.1001 104.149 15.3724C103.975 15.6447 103.76 15.7808 103.503 15.7808C103.43 15.7808 103.078 15.6492 102.445 15.386C101.813 15.1228 101.186 14.9912 100.563 14.9912C99.7203 14.9912 99.0928 15.1864 98.6806 15.5766C98.2684 15.9669 98.0623 16.4071 98.0623 16.8972C98.0623 17.4054 98.2913 17.8048 98.7493 18.0951C99.2074 18.3856 99.7707 18.6125 100.439 18.7759C101.108 18.9392 101.772 19.1389 102.432 19.3749C103.091 19.6109 103.65 20.0147 104.108 20.5865C104.566 21.1583 104.795 21.8979 104.795 22.8055C104.795 23.9309 104.392 24.8203 103.586 25.4738C102.78 26.1273 101.653 26.454 100.206 26.454C98.9601 26.454 97.8975 26.2316 97.0181 25.7869C96.1387 25.3422 95.6991 24.8748 95.6991 24.3847L95.6991 24.3847Z"
		fill="#fff" />
</svg>